<?xml version="1.0" encoding="utf-8"?>
<!-- Generator: Adobe Illustrator 14.0.0, SVG Export Plug-In . SVG Version: 6.00 Build 43363)  -->
<!DOCTYPE svg PUBLIC "-//W3C//DTD SVG 1.1//EN" "http://www.w3.org/Graphics/SVG/1.1/DTD/svg11.dtd">
<svg version="1.1" id="Capa_2" xmlns="http://www.w3.org/2000/svg" xmlns:xlink="http://www.w3.org/1999/xlink" x="0px" y="0px"
	 width="400px" height="400px" viewBox="0 -17.5 400 400" enable-background="new 0 -17.5 400 400" xml:space="preserve">
<g>
	<path fill="#F2F2F2" d="M184.377,43.979v-4.82h-0.078v5.084c0.025,0.005,0.044,0.012,0.072,0.017
		C184.375,44.178,184.377,44.084,184.377,43.979z"/>
	<path fill="#F2F2F2" d="M200-2.658c-23.472,0-42.5,19.027-42.5,42.5c0,23.472,19.028,42.5,42.5,42.5
		c23.473,0,42.5-19.028,42.5-42.5C242.5,16.369,223.473-2.658,200-2.658z M233.786,45.873c-1.245,0.851-2.887,1.284-4.879,1.284
		c-1.025,0-1.979-0.1-2.838-0.297c-0.583-0.134-1.084-0.28-1.525-0.441v0.465h-6.551c-0.167,0.048-0.334,0.088-0.503,0.123
		c-0.464,0.094-0.967,0.141-1.494,0.141c-1.429,0-2.711-0.483-3.707-1.396c-1.045-0.958-1.598-2.237-1.598-3.698
		c0-0.748,0.136-1.42,0.38-2.025h-0.056l-0.321-0.112c0.015,0.006,0.007,0.009-0.014,0.009c-0.026,0-0.075-0.004-0.13-0.008
		c-0.236-0.018-0.433-0.029-0.589-0.029c-0.107,0-0.21,0.002-0.307,0.006v6.99h-7.173v-0.581c-0.705,0.266-1.393,0.479-2.039,0.611
		c-0.761,0.155-1.602,0.233-2.5,0.233c-2.457,0-4.422-0.608-5.843-1.808c-0.18-0.152-0.366-0.336-0.55-0.535v0.255
		c0,2.112-0.916,3.388-1.683,4.085c-1.06,0.966-2.403,1.457-3.991,1.457c-0.638,0-1.237-0.029-1.779-0.086
		c-0.576-0.061-0.987-0.124-1.295-0.199l-1.527-0.372v-3.061h-4.148V36.329h-1.941v10.556h-7.375V36.329h-4.087v-6.531h13.315
		v-0.589h7.137h0.212h7.163v5.877c0.121-0.136,0.243-0.271,0.377-0.399c1.381-1.314,3.227-1.98,5.489-1.98
		c2.148,0,3.843,0.607,5.037,1.804c0.011,0.011,0.019,0.025,0.029,0.037v-1.533h7.173v0.114c0.425-0.099,0.838-0.149,1.235-0.149
		c0.136,0,0.29,0.003,0.461,0.011c0.192,0.008,0.361,0.021,0.506,0.037l1.568,0.174c0.368-0.08,0.836-0.166,1.443-0.262
		c0.854-0.136,1.721-0.206,2.577-0.206c2.238,0,3.887,0.389,5.038,1.188c0.434,0.299,0.903,0.739,1.286,1.348
		c0.316-0.422,0.722-0.837,1.271-1.221c1.236-0.867,2.862-1.307,4.833-1.307c0.884,0,1.744,0.092,2.557,0.272
		c0.808,0.177,1.453,0.375,1.967,0.604l1.186,0.529v5.535c0.295,0.624,0.448,1.325,0.448,2.074
		C236.031,43.448,235.255,44.872,233.786,45.873z"/>
</g>
<path fill="#F2F2F2" d="M350,106.323c-23.473,0-42.5,19.027-42.5,42.5c0,23.472,19.027,42.5,42.5,42.5s42.5-19.028,42.5-42.5
	C392.5,125.351,373.473,106.323,350,106.323z M378.469,155.865h-7.174v-0.581c-0.705,0.265-1.392,0.479-2.038,0.611
	c-0.761,0.155-1.603,0.233-2.501,0.233c-2.457,0-4.423-0.608-5.843-1.808c-0.353-0.297-0.726-0.69-1.067-1.176
	c-0.206,0.321-0.429,0.622-0.678,0.889c-0.601,0.651-1.306,1.159-2.088,1.504c-0.785,0.346-1.632,0.521-2.518,0.521
	c-0.22,0-0.43-0.007-0.633-0.021v3.449h-7.174v-3.621h-5.459c-0.167,0.048-0.334,0.088-0.503,0.123
	c-0.464,0.094-0.967,0.141-1.495,0.141c-1.429,0-2.711-0.483-3.707-1.396c-1.045-0.958-1.598-2.237-1.598-3.698
	c0-0.352,0.037-0.684,0.092-1.005c-0.539,0.425-1.119,0.772-1.739,1.027c-0.881,0.362-1.942,0.545-3.155,0.545h-0.1v4.263h-7.375
	v-17.087h7.555c1.005,0,1.853,0.09,2.592,0.276c0.786,0.198,1.5,0.504,2.123,0.911c0.818,0.537,1.454,1.237,1.892,2.084
	c0.052,0.099,0.09,0.207,0.135,0.311l0.334-0.088c0.403-0.106,0.983-0.218,1.824-0.353c0.855-0.136,1.724-0.206,2.579-0.206
	c2.237,0,3.885,0.389,5.037,1.188c0.319,0.221,0.658,0.521,0.969,0.902v-1.808h6.526c0.584-0.181,1.216-0.272,1.886-0.272
	c1.856,0,3.399,0.742,4.462,2.147c0.146,0.193,0.261,0.414,0.384,0.626c0.219-0.291,0.455-0.57,0.726-0.828
	c1.381-1.314,3.228-1.98,5.489-1.98c2.148,0,3.843,0.607,5.037,1.804c0.011,0.011,0.019,0.025,0.029,0.037v-5.339h7.174V155.865z"/>
<path fill="#F2F2F2" d="M292.705,282.658c-23.473,0-42.5,19.027-42.5,42.5c0,23.472,19.027,42.5,42.5,42.5s42.5-19.028,42.5-42.5
	C335.205,301.686,316.178,282.658,292.705,282.658z M319.163,332.201c-0.163,0.047-0.328,0.088-0.494,0.121
	c-0.479,0.096-0.979,0.143-1.499,0.143c-1.429,0-2.71-0.483-3.707-1.396c-1.045-0.958-1.598-2.237-1.598-3.697
	c0-0.748,0.135-1.421,0.379-2.025h-0.053l-0.319-0.111c0.012,0.006,0.005,0.009-0.015,0.009c-0.026,0-0.077-0.005-0.134-0.009
	c-0.235-0.019-0.432-0.029-0.589-0.029c-0.107,0-0.209,0.002-0.307,0.006v6.99h-6.16h-1.012h-5.454
	c-0.578,0.181-1.207,0.271-1.876,0.271c-1.471,0-2.756-0.497-3.777-1.433l-1.151,0.462c-0.826,0.332-1.623,0.577-2.367,0.729
	c-0.761,0.155-1.602,0.233-2.499,0.233c-2.457,0-4.423-0.608-5.843-1.808c-0.181-0.152-0.366-0.337-0.552-0.537v2.081h-7.172v-6.403
	c-0.712,0.701-1.512,1.235-2.387,1.595c-0.892,0.367-1.923,0.545-3.154,0.545h-0.102v4.264h-7.375v-17.088h7.555
	c1.008,0,1.856,0.091,2.596,0.278c0.779,0.194,1.494,0.5,2.119,0.908c0.237,0.155,0.454,0.328,0.66,0.511v-2.285h7.348v5.785
	c0.096-0.104,0.187-0.209,0.289-0.307c1.381-1.314,3.228-1.98,5.49-1.98c2.148,0,3.843,0.607,5.037,1.805
	c0.277,0.279,0.516,0.588,0.729,0.915c0.155-0.218,0.3-0.448,0.479-0.644c0.588-0.649,1.311-1.161,2.143-1.516
	c0.808-0.348,1.647-0.525,2.487-0.525c0.214,0,0.419,0.007,0.615,0.02v-3.553h7.174v3.805h6.16v0.114
	c0.426-0.1,0.839-0.149,1.236-0.149c0.136,0,0.288,0.004,0.46,0.012c0.193,0.008,0.362,0.02,0.507,0.036l1.568,0.174
	c0.371-0.081,0.846-0.167,1.444-0.262c0.849-0.137,1.717-0.206,2.575-0.206c2.237,0,3.885,0.389,5.038,1.188
	c0.938,0.648,2.06,1.914,2.06,4.249v8.715H319.163z"/>
<g>
	<path fill="#F2F2F2" d="M131.376,325.964c-0.016-0.228-0.028-0.457-0.028-0.694c0-0.271,0.011-0.536,0.032-0.795h-0.154
		c0,0,0,1.55,0,1.572L131.376,325.964z"/>
	<path fill="#F2F2F2" d="M138.745,326.302c0,0,0.018,0.001,0.027,0.001c0.013-0.03,0.024-0.062,0.034-0.098
		c0.014-0.046,0.076-0.292,0.076-0.918c0-0.527-0.056-0.815-0.09-0.94c-0.013-0.048-0.025-0.087-0.036-0.118
		c-0.01,0.029-0.022,0.065-0.034,0.108c-0.035,0.122-0.094,0.408-0.094,0.95c0,0.465,0.048,0.753,0.088,0.913
		C138.726,326.24,138.736,326.274,138.745,326.302z"/>
	<path fill="#F2F2F2" d="M107.295,282.658c-23.473,0-42.5,19.027-42.5,42.5c0,23.472,19.027,42.5,42.5,42.5s42.5-19.028,42.5-42.5
		C149.795,301.686,130.768,282.658,107.295,282.658z M138.754,332.508c-1.82,0-3.35-0.443-4.574-1.306v0.46l-1.499,0.388
		c-0.411,0.105-0.854,0.191-1.318,0.253c-0.478,0.062-1.034,0.092-1.662,0.092c-1.703,0-3.056-0.406-4.023-1.209
		c-1.078-0.894-1.624-2.271-1.624-4.096v-1.744h-0.597l-0.32-0.111c0.013,0.006,0.006,0.008-0.014,0.008
		c-0.027,0-0.077-0.004-0.132-0.008c-0.235-0.019-0.432-0.029-0.588-0.029c-0.107,0-0.209,0.002-0.307,0.006v6.99h-6.082h-1.091
		h-5.462c-0.164,0.047-0.329,0.088-0.495,0.121c-0.478,0.096-0.979,0.143-1.5,0.143c-1.428,0-2.71-0.483-3.707-1.396
		c-0.019-0.017-0.031-0.038-0.049-0.055c-0.089,0.411-0.2,0.804-0.348,1.16c-0.401,0.963-0.99,1.742-1.75,2.314
		c-0.681,0.521-1.51,0.906-2.452,1.134c-0.825,0.196-1.746,0.296-2.742,0.296c-0.764,0-1.528-0.047-2.271-0.138
		c-0.737-0.091-1.394-0.205-1.951-0.34l-1.531-0.369v-2.87H84.85c-0.164,0.047-0.329,0.088-0.495,0.121
		c-0.478,0.096-0.979,0.143-1.5,0.143c-0.876,0-1.687-0.203-2.421-0.555v0.291H66.995v-17.088h7.375v10.557h3.437
		c0.141-0.441,0.334-0.852,0.593-1.219c0.004-0.006,0.008-0.012,0.012-0.018v-5.435l1.491-0.393c0.402-0.105,1-0.221,1.827-0.352
		c0.849-0.137,1.717-0.206,2.576-0.206c2.237,0,3.884,0.389,5.038,1.188c0.497,0.343,1.04,0.866,1.446,1.622
		c0.205-0.308,0.422-0.606,0.675-0.874c0.582-0.618,1.299-1.104,2.129-1.439c0.799-0.323,1.635-0.487,2.484-0.487
		c0.721,0,1.398,0.091,2.012,0.27c0.003,0,5.821,0.002,5.821,0.002v0.435l0.603-0.158c0.402-0.105,1-0.221,1.827-0.352
		c0.849-0.137,1.717-0.206,2.576-0.206c2.237,0,3.884,0.389,5.038,1.188c0.32,0.221,0.659,0.521,0.969,0.902v-1.81h7.173v0.114
		c0.223-0.052,0.442-0.089,0.658-0.114l0,0h0.006c0.193-0.022,0.384-0.035,0.571-0.035c0.136,0,0.289,0.004,0.461,0.012
		c0.1,0.004,0.175,0.013,0.262,0.019v-2.815h7.173v2.82h2.953v1.004c1.228-0.865,2.758-1.311,4.574-1.311
		c2.263,0,4.082,0.67,5.407,1.99c1.326,1.321,1.999,3.09,1.999,5.256c0,2.17-0.677,3.939-2.013,5.26
		C142.815,331.843,141.001,332.508,138.754,332.508z"/>
</g>
<g>
	<path fill="#F2F2F2" d="M51.344,149.967c0,0,0.018,0,0.027,0c0.013-0.03,0.024-0.062,0.034-0.097
		c0.014-0.046,0.076-0.292,0.076-0.917c0-0.527-0.056-0.815-0.09-0.94c-0.013-0.048-0.036-0.119-0.036-0.119
		c-0.01,0.029-0.022,0.064-0.034,0.107c-0.035,0.122-0.094,0.409-0.094,0.952c0,0.464,0.048,0.752,0.088,0.912
		C51.325,149.905,51.335,149.939,51.344,149.967z"/>
	<path fill="#F2F2F2" d="M65.694,149.223l0.309-0.296c0,0-0.476-0.406-0.632-0.533c-0.04-0.032-0.136-0.103-0.316-0.199
		c-0.121-0.065-0.259-0.12-0.415-0.167c-0.057-0.017-0.189-0.045-0.432-0.045c-0.153,0-0.35,0.017-0.417,0.096
		c-0.18,0.212-0.207,0.65-0.207,0.892c0,0.497,0.099,0.733,0.151,0.788c0.066,0.069,0.267,0.112,0.526,0.112
		c0.208,0,0.391-0.021,0.527-0.059c0.223-0.063,0.316-0.115,0.333-0.125c0.087-0.052,0.172-0.108,0.244-0.169
		C65.482,149.418,65.593,149.319,65.694,149.223z"/>
	<path fill="#F2F2F2" d="M50,106.323c-23.473,0-42.5,19.027-42.5,42.5c0,23.472,19.027,42.5,42.5,42.5s42.5-19.028,42.5-42.5
		C92.5,125.351,73.473,106.323,50,106.323z M75.321,155.866l-0.531-0.823v0.823h-7.173v-0.378c-0.381,0.145-0.768,0.274-1.163,0.374
		c-0.698,0.177-1.469,0.268-2.287,0.268c-1.044,0-2.025-0.13-2.914-0.386c-0.968-0.279-1.831-0.722-2.565-1.318
		c-0.434-0.355-0.806-0.767-1.128-1.221c-0.238,0.353-0.508,0.685-0.817,0.99c-1.329,1.313-3.143,1.979-5.391,1.979
		s-4.062-0.666-5.391-1.979c-0.312-0.308-0.584-0.643-0.824-1c-0.197,0.302-0.408,0.586-0.643,0.838
		c-0.601,0.651-1.306,1.16-2.088,1.504c-0.786,0.346-1.633,0.521-2.518,0.521c-0.22,0-0.43-0.007-0.633-0.021v3.449h-7.173v-5.469
		c-0.184,0.169-0.378,0.333-0.588,0.487c-1.438,1.061-3.335,1.598-5.639,1.598c-1.232,0-2.341-0.114-3.294-0.34
		c-0.902-0.212-1.769-0.49-2.572-0.825l-1.231-0.513v-6.471h1.051c-0.645-0.92-0.972-2.021-0.972-3.273
		c0-1.874,0.86-3.471,2.487-4.618c1.432-1.009,3.238-1.521,5.367-1.521c0.984,0,1.973,0.097,2.94,0.288
		c0.983,0.196,1.817,0.438,2.555,0.74l1.242,0.508v1.917h5.18c0.584-0.181,1.216-0.272,1.887-0.272c1.857,0,3.399,0.743,4.461,2.147
		c0.133,0.176,0.235,0.378,0.349,0.569c0.204-0.275,0.422-0.54,0.672-0.784c1.335-1.306,3.144-1.968,5.376-1.968
		c2.263,0,4.082,0.669,5.407,1.99c0.31,0.309,0.581,0.645,0.819,1.002c0.349-0.494,0.754-0.938,1.228-1.316
		c0.756-0.589,1.611-1.015,2.559-1.278c0.868-0.241,1.778-0.363,2.706-0.363c0.839,0,1.634,0.095,2.362,0.283
		c0.409,0.105,0.802,0.238,1.184,0.383v-4.199h7.173v4.348l0.423-0.542h8.896l-5.318,6.379l5.07,7.491H75.321z"/>
</g>
<polygon fill="none" points="200,39.842 246.353,133.763 350,148.823 275,221.93 292.705,325.158 200,276.421 107.295,325.158 
	125,221.93 50,148.823 153.647,133.763 "/>
<g id="path3201" color-interpolation="linearRGB">
	<g>
		<line fill="none" stroke="#F13551" stroke-width="1.75" x1="84.38" y1="123.844" x2="165.622" y2="64.819"/>
		<path fill="#F13551" d="M174.167,58.611c-2.937,4.413-6.076,10.583-7.209,15.523l-2.456-8.5l-7.326-4.963
			C162.225,61.119,169.062,60.041,174.167,58.611z"/>
	</g>
</g>
<g id="path3983" color-interpolation="linearRGB">
	<g>
		<line fill="none" stroke="#00D0F1" stroke-width="1.75" x1="234.638" y1="64.453" x2="315.846" y2="123.844"/>
		<path fill="#00D0F1" d="M324.371,130.079c-5.101-1.445-11.935-2.546-16.985-2.113l7.341-4.939l2.483-8.493
			C318.328,119.478,321.447,125.658,324.371,130.079z"/>
	</g>
</g>
<g id="path4500" color-interpolation="linearRGB">
	<g>
		<line fill="none" stroke="#F1D500" stroke-width="1.75" x1="336.866" y1="189.245" x2="305.841" y2="284.729"/>
		<path fill="#F1D500" d="M302.577,294.774c-0.218-5.297-1.305-12.133-3.292-16.797l6.984,5.434l8.844-0.29
			C310.765,285.726,305.866,290.617,302.577,294.774z"/>
	</g>
</g>
<g id="path6047" color-interpolation="linearRGB">
	<g>
		<line fill="none" stroke="#5100F1" stroke-width="1.75" x1="250.205" y1="325.158" x2="149.795" y2="325.158"/>
		<path fill="#5100F1" d="M139.233,325.158c4.97-1.844,11.136-4.99,14.957-8.321l-3.01,8.321l3.01,8.321
			C150.369,330.148,144.203,327.001,139.233,325.158z"/>
	</g>
</g>
<g id="path6564" color-interpolation="linearRGB">
	<g>
		<line fill="none" stroke="#51C651" stroke-width="1.75" x1="94.165" y1="284.729" x2="63.135" y2="189.248"/>
		<path fill="#51C651" d="M59.871,179.204c3.29,4.157,8.188,9.048,12.536,11.653l-8.844-0.29L56.58,196
			C58.566,191.337,59.653,184.5,59.871,179.204z"/>
	</g>
</g>
<g id="path7081" color-interpolation="linearRGB">
	<g>
		<line fill="none" stroke="#00D0F1" stroke-width="1.75" x1="186.866" y1="80.264" x2="120.431" y2="284.729"/>
		<path fill="#00D0F1" d="M117.167,294.774c-0.218-5.297-1.305-12.133-3.292-16.797l6.984,5.434l8.844-0.291
			C125.354,285.726,120.456,290.617,117.167,294.774z"/>
	</g>
</g>
<g id="path7598" color-interpolation="linearRGB">
	<g>
		<line fill="none" stroke="#51C651" stroke-width="1.75" x1="141.673" y1="300.182" x2="315.619" y2="173.802"/>
		<path fill="#51C651" d="M324.164,167.594c-2.938,4.413-6.076,10.583-7.21,15.524l-2.456-8.501l-7.326-4.963
			C312.222,170.103,319.06,169.024,324.164,167.594z"/>
	</g>
</g>
<g id="path8115" color-interpolation="linearRGB">
	<g>
		<line fill="none" stroke="#F1D500" stroke-width="1.75" x1="307.5" y1="148.822" x2="92.5" y2="148.822"/>
		<path fill="#F1D500" d="M81.938,148.822c4.97-1.844,11.136-4.99,14.957-8.321l-3.01,8.321l3.01,8.321
			C93.074,153.812,86.908,150.666,81.938,148.822z"/>
	</g>
</g>
<g id="path8632" color-interpolation="linearRGB">
	<g>
		<line fill="none" stroke="#F13551" stroke-width="1.75" x1="84.38" y1="173.802" x2="258.328" y2="300.182"/>
		<path fill="#F13551" d="M266.873,306.39c-5.105-1.43-11.942-2.509-16.992-2.06l7.326-4.963l2.456-8.501
			C260.797,295.807,263.936,301.978,266.873,306.39z"/>
	</g>
</g>
<path id="path9149" color-interpolation="linearRGB" fill="none" stroke="#5100F1" stroke-width="1.75" d="M279.569,284.729
	L213.134,80.264"/>
<text transform="matrix(0.3213 0.947 -0.947 0.3213 227.2617 167.0957)" fill="#5100F1" font-family="'Verdana-Bold'" font-size="10">Aplasta</text>
<text transform="matrix(1 0 0 1 178.9893 340.4043)" fill="#5100F1" font-family="'Verdana-Bold'" font-size="10">Aplasta</text>
<text transform="matrix(0.8172 -0.5763 0.5763 0.8172 211.5908 243.3418)" fill="#51C651" font-family="'Verdana-Bold'" font-size="10">Come</text>
<text transform="matrix(0.3129 0.9498 -0.9498 0.3129 55.0781 211.0615)" fill="#51C651" font-family="'Verdana-Bold'" font-size="10">Envenena</text>
<text transform="matrix(1 0 0 1 166.4331 162.1543)" fill="#F1D500" font-family="'Verdana-Bold'" font-size="10">Desautoriza</text>
<text transform="matrix(0.3075 -0.9515 0.9515 0.3075 330.1377 255.1953)" fill="#F1D500" font-family="'Verdana-Bold'" font-size="10">Cubre</text>
<text transform="matrix(0.8117 0.5841 -0.5841 0.8117 265.0195 80.6533)" fill="#00D0F1" font-family="'Verdana-Bold'" font-size="10">Corta</text>
<text transform="matrix(0.8055 0.5926 -0.5926 0.8055 155.0176 216.9922)" fill="#F13551" font-family="'Verdana-Bold'" font-size="10">Vaporiza</text>
<text transform="matrix(0.8184 -0.5747 0.5747 0.8184 94.4404 102.168)" fill="#F13551" font-family="'Verdana-Bold'" font-size="10">Rompe</text>
<text transform="matrix(0.3123 -0.95 0.95 0.3123 156.2749 213.7227)" fill="#00D0F1" font-family="'Verdana-Bold'" font-size="10">Decapita</text>
<text transform="matrix(1 0 0 1 165.3623 44.8843)" fill="#00D0F1" font-family="'Verdana-Bold'" font-size="18">Tijeras</text>
<text transform="matrix(1 0 0 1 322.0469 153.8652)" fill="#F1D500" font-family="'Verdana-Bold'" font-size="18">Papel</text>
<text transform="matrix(1 0 0 1 260.2773 330.2012)" fill="#5100F1" font-family="'Verdana-Bold'" font-size="18">Piedra</text>
<text transform="matrix(1 0 0 1 67.3252 330.2012)" fill="#51C651" font-family="'Verdana-Bold'" font-size="18">Lagarto</text>
<text transform="matrix(1 0 0 1 19.8008 153.8657)" fill="#F13551" font-family="'Verdana-Bold'" font-size="18">Spock</text>
</svg>
